<svg width="17" height="17" viewBox="0 0 17 17" fill="none" xmlns="http://www.w3.org/2000/svg">
<path d="M0.329264 0H2.86515V0.833883H0.658529V3.01319H0V0.416941C0 0.187449 0.148031 0 0.329264 0ZM2.47917 2.84326H3.62191V14.1567H2.47917V2.84326ZM9.60262 2.84326H10.4189V14.1567H9.60262V2.84326ZM8.02132 2.84326H8.63281V14.1567H8.02132V2.84326ZM4.59172 2.84326H4.93897V14.1567H4.59172V2.84326ZM13.5012 2.84326H14.5208V14.1567H13.5012V2.84326ZM11.3887 2.84326H12.5314V14.1567H11.3887V2.84326ZM5.90877 2.84326H7.05151V14.1567H5.90877V2.84326ZM0.658529 13.9868V16.1661H2.86515V17H0.329264C0.148031 17 0 16.8143 0 16.5831V13.9868H0.658529ZM14.305 0H16.6707C16.852 0 17 0.187449 17 0.416941V3.01319H16.3415V0.833883H14.305V0ZM17 13.9868V16.5831C17 16.8126 16.852 17 16.6707 17H14.305V16.1661H16.3415V13.9868H17Z" fill="#2767A5"/>
</svg>
