<svg width="17" height="17" viewBox="0 0 17 17" fill="none" xmlns="http://www.w3.org/2000/svg">
<path d="M8.02689 2.48694V7.76605L4.71078 6.108L0.413605 8.23883V16.5883H16.5879V2.48587L12.2907 0.411865L8.02689 2.48694ZM5.18376 15.6406H4.23604V14.6929H5.18376V15.6406ZM6.13147 15.6406V13.7452H3.28833V15.6406H1.36132V8.82673L4.70902 7.16672L8.02689 8.82565V15.6406H6.13147ZM12.7655 15.6406H11.8177V14.6929H12.7655V15.6406ZM15.6402 3.08078V15.6406H13.7132V13.7452H10.87V15.6406H8.9746V3.07971L12.2925 1.46503L15.6402 3.08078Z" fill="#185DA0"/>
<path d="M9.92148 4.26807H10.8692V5.21578H9.92148V4.26807Z" fill="#185DA0"/>
<path d="M13.7123 4.26807H14.66V5.21578H13.7123V4.26807Z" fill="#185DA0"/>
<path d="M11.8169 4.26807H12.7646V5.21578H11.8169V4.26807Z" fill="#185DA0"/>
<path d="M9.92148 6.16357H10.8692V7.11129H9.92148V6.16357Z" fill="#185DA0"/>
<path d="M11.8169 6.16357H12.7646V7.11129H11.8169V6.16357Z" fill="#185DA0"/>
<path d="M13.7123 6.16357H14.66V7.11129H13.7123V6.16357Z" fill="#185DA0"/>
<path d="M9.92148 8.05884H10.8692V9.00654H9.92148V8.05884Z" fill="#185DA0"/>
<path d="M13.7123 8.05884H14.66V9.00654H13.7123V8.05884Z" fill="#185DA0"/>
<path d="M11.8169 8.05884H12.7646V9.00654H11.8169V8.05884Z" fill="#185DA0"/>
<path d="M9.92148 9.95435H10.8692V10.902H9.92148V9.95435Z" fill="#185DA0"/>
<path d="M11.8169 9.95435H12.7646V10.902H11.8169V9.95435Z" fill="#185DA0"/>
<path d="M13.7123 9.95435H14.66V10.902H13.7123V9.95435Z" fill="#185DA0"/>
<path d="M9.92148 11.8499H10.8692V12.7976H9.92148V11.8499Z" fill="#185DA0"/>
<path d="M13.7123 11.8499H14.66V12.7976H13.7123V11.8499Z" fill="#185DA0"/>
<path d="M11.8169 11.8499H12.7646V12.7976H11.8169V11.8499Z" fill="#185DA0"/>
<path d="M2.33987 9.95435H3.28758V10.902H2.33987V9.95435Z" fill="#185DA0"/>
<path d="M4.23514 9.95435H5.18285V10.902H4.23514V9.95435Z" fill="#185DA0"/>
<path d="M6.13068 9.95435H7.07839V10.902H6.13068V9.95435Z" fill="#185DA0"/>
<path d="M2.33987 11.8499H3.28758V12.7976H2.33987V11.8499Z" fill="#185DA0"/>
<path d="M6.13068 11.8499H7.07839V12.7976H6.13068V11.8499Z" fill="#185DA0"/>
<path d="M4.23514 11.8499H5.18285V12.7976H4.23514V11.8499Z" fill="#185DA0"/>
</svg>
