<svg width="17" height="17" viewBox="0 0 17 17" fill="none" xmlns="http://www.w3.org/2000/svg">
<path d="M15.8333 11.6667H4.16667C3.94565 11.6667 3.73369 11.5789 3.57741 11.4226C3.42113 11.2663 3.33333 11.0544 3.33333 10.8333C3.33333 10.6123 3.42113 10.4004 3.57741 10.2441C3.73369 10.0878 3.94565 10 4.16667 10H12.8667C13.4239 10 13.9651 9.81393 14.4045 9.47121C14.8438 9.12848 15.1561 8.64881 15.2917 8.10835L16.6667 2.70002C16.6979 2.57702 16.7006 2.44853 16.6746 2.32433C16.6486 2.20012 16.5946 2.0835 16.5167 1.98335C16.4356 1.88063 16.3315 1.79843 16.2128 1.74341C16.0941 1.6884 15.9641 1.66211 15.8333 1.66668H3.96667C3.79474 1.18039 3.47661 0.759181 3.05589 0.460797C2.63517 0.162414 2.13245 0.00146485 1.61667 1.52588e-05H0.833333C0.61232 1.52588e-05 0.400358 0.0878126 0.244078 0.244093C0.0877973 0.400373 0 0.612335 0 0.833349C0 1.05436 0.0877973 1.26632 0.244078 1.4226C0.400358 1.57888 0.61232 1.66668 0.833333 1.66668H1.61667C1.80703 1.66114 1.99355 1.72096 2.14517 1.83619C2.29679 1.95143 2.40437 2.11512 2.45 2.30002L2.5 2.70002L3.94167 8.33335C3.27863 8.36319 2.65459 8.65519 2.20685 9.14513C1.75911 9.63507 1.52433 10.2828 1.55417 10.9458C1.584 11.6089 1.87601 12.2329 2.36595 12.6807C2.85589 13.1284 3.50363 13.3632 4.16667 13.3333H4.31667C4.17961 13.711 4.13557 14.116 4.18828 14.5143C4.24098 14.9125 4.38887 15.2922 4.61943 15.6211C4.84999 15.9501 5.15643 16.2187 5.51279 16.4041C5.86916 16.5895 6.26496 16.6863 6.66667 16.6863C7.06838 16.6863 7.46418 16.5895 7.82054 16.4041C8.1769 16.2187 8.48334 15.9501 8.7139 15.6211C8.94446 15.2922 9.09236 14.9125 9.14506 14.5143C9.19776 14.116 9.15372 13.711 9.01667 13.3333H10.9833C10.8463 13.711 10.8022 14.116 10.8549 14.5143C10.9076 14.9125 11.0555 15.2922 11.2861 15.6211C11.5167 15.9501 11.8231 16.2187 12.1795 16.4041C12.5358 16.5895 12.9316 16.6863 13.3333 16.6863C13.735 16.6863 14.1308 16.5895 14.4872 16.4041C14.8436 16.2187 15.15 15.9501 15.3806 15.6211C15.6111 15.2922 15.759 14.9125 15.8117 14.5143C15.8644 14.116 15.8204 13.711 15.6833 13.3333H15.8333C16.0543 13.3333 16.2663 13.2456 16.4226 13.0893C16.5789 12.933 16.6667 12.721 16.6667 12.5C16.6667 12.279 16.5789 12.067 16.4226 11.9108C16.2663 11.7545 16.0543 11.6667 15.8333 11.6667ZM14.7667 3.33335L13.675 7.70002C13.6294 7.88491 13.5218 8.0486 13.3702 8.16384C13.2185 8.27907 13.032 8.3389 12.8417 8.33335H5.65L4.4 3.33335H14.7667ZM6.66667 15C6.50185 15 6.34073 14.9511 6.20369 14.8596C6.06665 14.768 5.95984 14.6379 5.89677 14.4856C5.83369 14.3333 5.81719 14.1658 5.84935 14.0041C5.8815 13.8425 5.96087 13.694 6.07741 13.5774C6.19396 13.4609 6.34244 13.3815 6.50409 13.3494C6.66574 13.3172 6.8333 13.3337 6.98557 13.3968C7.13784 13.4599 7.26799 13.5667 7.35956 13.7037C7.45113 13.8407 7.5 14.0019 7.5 14.1667C7.5 14.3877 7.4122 14.5997 7.25592 14.7559C7.09964 14.9122 6.88768 15 6.66667 15ZM13.3333 15C13.1685 15 13.0074 14.9511 12.8704 14.8596C12.7333 14.768 12.6265 14.6379 12.5634 14.4856C12.5004 14.3333 12.4839 14.1658 12.516 14.0041C12.5482 13.8425 12.6275 13.694 12.7441 13.5774C12.8606 13.4609 13.0091 13.3815 13.1708 13.3494C13.3324 13.3172 13.5 13.3337 13.6522 13.3968C13.8045 13.4599 13.9347 13.5667 14.0262 13.7037C14.1178 13.8407 14.1667 14.0019 14.1667 14.1667C14.1667 14.3877 14.0789 14.5997 13.9226 14.7559C13.7663 14.9122 13.5543 15 13.3333 15Z" fill="#2767A5"/>
</svg>
