<svg width="12" height="8" viewBox="0 0 12 8" fill="none" xmlns="http://www.w3.org/2000/svg">
<path d="M4.22205 6.61264L1.60938 3.99998C1.48437 3.87499 1.31483 3.80478 1.13805 3.80478C0.961275 3.80478 0.791736 3.87499 0.666718 3.99998C0.541737 4.12499 0.471527 4.29453 0.471527 4.47131C0.471527 4.64808 0.541737 4.81762 0.666718 4.94264L3.27938 7.55531C3.4032 7.67918 3.55021 7.77744 3.71202 7.84448C3.87382 7.91152 4.04724 7.94602 4.22238 7.94602C4.39753 7.94602 4.57095 7.91152 4.73275 7.84448C4.89456 7.77744 5.04157 7.67918 5.16538 7.55531L11.3334 1.38731C11.4584 1.26229 11.5286 1.09275 11.5286 0.915975C11.5286 0.739199 11.4584 0.56966 11.3334 0.444641C11.2084 0.319661 11.0388 0.249451 10.8621 0.249451C10.6853 0.249451 10.5157 0.319661 10.3907 0.444641L4.22205 6.61264Z" fill="#474747"/>
</svg>
