<svg width="17" height="17" viewBox="0 0 17 17" fill="none" xmlns="http://www.w3.org/2000/svg">
<path d="M9.52083 11.2061L9.52084 11.2061L10.2498 10.4772L10.315 10.5425L10.2498 10.4772C10.6517 10.0753 11.2761 9.99279 11.7686 10.2763L15.4692 12.407C15.8113 12.6039 16.0375 12.9419 16.0893 13.3332C16.141 13.7245 16.0104 14.1097 15.7313 14.3888L15.6653 14.3228L15.7313 14.3888L14.633 15.4872L14.5623 15.4165L14.633 15.4872C14.2203 15.8999 13.6388 16.1005 12.9367 16.1005C12.2569 16.1005 11.4589 15.9129 10.5752 15.5434C8.84898 14.8215 6.95471 13.4774 5.23888 11.7616L5.30544 11.695L5.23888 11.7616C3.52313 10.0458 2.17898 8.15148 1.45709 6.42525C0.710262 4.63935 0.699986 3.18082 1.5133 2.36748L1.58401 2.43819L1.5133 2.36748L2.61162 1.26913L2.61162 1.26912C2.8907 0.990039 3.27588 0.859277 3.66725 0.911149L9.52083 11.2061ZM9.52083 11.2061C9.36273 11.3642 9.11335 11.3778 8.94059 11.2388L8.94058 11.2388C8.36884 10.7788 7.80572 10.2723 7.26696 9.73351L7.20332 9.79714L7.26696 9.7335C6.7282 9.19474 6.22174 8.63165 5.76167 8.05988L5.76166 8.05988C5.6226 7.88707 5.63619 7.63773 5.79434 7.4796L5.79435 7.47959L6.52323 6.75068M9.52083 11.2061L6.52323 6.75068M6.52323 6.75068C6.52323 6.75068 6.52324 6.75068 6.52324 6.75067M6.52323 6.75068L6.52324 6.75067M6.52324 6.75067C6.92512 6.34882 7.00774 5.72444 6.72414 5.23191M6.52324 6.75067L6.72414 5.23191M6.72414 5.23191L4.59344 1.53124M6.72414 5.23191L4.59344 1.53124M4.59344 1.53124C4.39649 1.18919 4.05856 0.962928 3.66727 0.911152L4.59344 1.53124ZM15.4093 13.4232L15.4093 13.4232C15.4251 13.543 15.4035 13.6609 15.3492 13.764L10.6277 11.0694L10.7348 10.9623C10.9177 10.7794 11.2022 10.7418 11.4263 10.8708L15.127 13.0015L15.1734 12.9208L15.127 13.0015C15.283 13.0913 15.3857 13.2446 15.4093 13.4232ZM3.99894 1.87352L3.99894 1.87353L6.12965 5.5742L6.12965 5.57421C6.25871 5.79831 6.22106 6.08281 6.03821 6.26564L6.0382 6.26564L5.947 6.35685L3.23765 1.65114C3.31843 1.6086 3.408 1.58611 3.50034 1.58611C3.52577 1.58611 3.55148 1.5878 3.57725 1.59121L3.59037 1.49209L3.57726 1.59121C3.75581 1.61483 3.90911 1.71747 3.99894 1.87352ZM2.08996 6.1606L1.99822 6.19896L2.08995 6.1606C1.7662 5.38646 1.60079 4.69713 1.58919 4.13079C1.57758 3.56402 1.71977 3.13111 1.99837 2.85251L2.72145 2.12939L5.44465 6.85919L5.30928 6.99456L5.30928 6.99456C4.90348 7.4004 4.86794 8.04338 5.22721 8.48996L5.22721 8.48996C5.70285 9.08108 6.22593 9.66264 6.78186 10.2186L6.84841 10.152L6.78186 10.2186C7.33786 10.7745 7.91941 11.2976 8.5105 11.7732L8.57319 11.6953L8.5105 11.7732C8.95702 12.1325 9.6 12.097 10.0059 11.6911L9.94063 11.6259L10.0059 11.6911L10.1249 11.5722L14.8698 14.2802L14.1479 15.0021C13.8693 15.2807 13.4364 15.4229 12.8697 15.4113C12.3033 15.3997 11.614 15.2342 10.8399 14.9105C9.2008 14.2251 7.38309 12.9356 5.72398 11.2765C4.06487 9.61741 2.77538 7.79967 2.08996 6.1606Z" fill="#185DA0" stroke="#185DA0" stroke-width="0.2"/>
</svg>
