<svg width="61" height="61" viewBox="0 0 61 61" fill="none" xmlns="http://www.w3.org/2000/svg">
<path fill-rule="evenodd" clip-rule="evenodd" d="M40.6392 12.1016C49.2835 11.6297 48.6594 11.0367 48.4107 19.6717C56.1495 23.5934 55.9067 22.7294 51.3536 30.1118C56.0603 37.32 56.2496 36.5437 48.6822 40.6191C49.1542 49.257 49.7292 48.6362 41.1104 48.386C37.209 56.0822 38.0249 55.8654 30.6665 51.327C23.4189 56.0551 24.2612 56.2693 20.1518 48.6537C11.4535 49.128 12.1296 49.7897 12.3817 41.082C4.65679 37.173 4.88141 38.0333 9.43595 30.6452C4.73183 23.4387 4.51833 24.227 12.1073 20.1379C11.6353 11.5 11.0421 12.1212 19.6801 12.3713C23.6097 4.61968 22.7221 4.8687 30.1225 9.43191C37.3365 4.72544 36.5455 4.52333 40.6373 12.1052L40.6392 12.1016Z" fill="#2767A5"/>
<g opacity="0.2">
<path opacity="0.2" fill-rule="evenodd" clip-rule="evenodd" d="M40.6392 12.1016C49.2835 11.6297 48.6594 11.0367 48.4107 19.6717C56.1495 23.5934 55.9067 22.7294 51.3536 30.1118C56.0603 37.32 56.2496 36.5437 48.6822 40.6191C49.1542 49.257 49.7292 48.6362 41.1104 48.386C37.209 56.0822 38.0249 55.8654 30.6665 51.327C23.4189 56.0551 24.2612 56.2693 20.1518 48.6537C11.4535 49.128 12.1296 49.7897 12.3817 41.082C4.65679 37.173 4.88141 38.0333 9.43595 30.6452C4.73183 23.4387 4.51833 24.227 12.1073 20.1379C11.6353 11.5 11.0421 12.1212 19.6801 12.3713C23.6097 4.61968 22.7221 4.8687 30.1225 9.43191C37.3365 4.72544 36.5455 4.52333 40.6373 12.1052L40.6392 12.1016Z" fill="black"/>
</g>
</svg>
