<svg width="18" height="21" viewBox="0 0 18 21" fill="none" xmlns="http://www.w3.org/2000/svg">
<path d="M15 5.99998H14.65C14.8782 5.53274 14.9979 5.01996 15 4.49998C15.003 3.8033 14.7975 3.12167 14.4098 2.54281C14.0221 1.96395 13.4701 1.51436 12.8247 1.25192C12.1794 0.98947 11.4703 0.926179 10.7886 1.07019C10.107 1.2142 9.48405 1.55892 9 2.05998C8.51595 1.55892 7.89302 1.2142 7.21138 1.07019C6.52975 0.926179 5.82061 0.98947 5.17525 1.25192C4.5299 1.51436 3.97786 1.96395 3.59019 2.54281C3.20252 3.12167 2.99697 3.8033 3 4.49998C3.00213 5.01996 3.12178 5.53274 3.35 5.99998H3C2.20435 5.99998 1.44129 6.31605 0.87868 6.87866C0.316071 7.44127 0 8.20433 0 8.99998V11C0 11.2652 0.105357 11.5195 0.292893 11.7071C0.48043 11.8946 0.734784 12 1 12H2V18C2 18.7956 2.31607 19.5587 2.87868 20.1213C3.44129 20.6839 4.20435 21 5 21H13C13.7956 21 14.5587 20.6839 15.1213 20.1213C15.6839 19.5587 16 18.7956 16 18V12H17C17.2652 12 17.5196 11.8946 17.7071 11.7071C17.8946 11.5195 18 11.2652 18 11V8.99998C18 8.20433 17.6839 7.44127 17.1213 6.87866C16.5587 6.31605 15.7956 5.99998 15 5.99998ZM8 19H5C4.73478 19 4.48043 18.8946 4.29289 18.7071C4.10536 18.5195 4 18.2652 4 18V12H8V19ZM8 9.99998H2V8.99998C2 8.73476 2.10536 8.48041 2.29289 8.29287C2.48043 8.10533 2.73478 7.99998 3 7.99998H8V9.99998ZM8 5.99998H6.5C6.20333 5.99998 5.91332 5.912 5.66665 5.74718C5.41997 5.58236 5.22771 5.34809 5.11418 5.074C5.00065 4.79991 4.97094 4.49831 5.02882 4.20734C5.0867 3.91637 5.22956 3.64909 5.43934 3.43932C5.64912 3.22954 5.91639 3.08668 6.20736 3.0288C6.49834 2.97092 6.79994 3.00063 7.07403 3.11416C7.34811 3.22769 7.58238 3.41995 7.7472 3.66662C7.91203 3.91329 8 4.2033 8 4.49998V5.99998ZM10 4.49998C10 4.2033 10.088 3.91329 10.2528 3.66662C10.4176 3.41995 10.6519 3.22769 10.926 3.11416C11.2001 3.00063 11.5017 2.97092 11.7926 3.0288C12.0836 3.08668 12.3509 3.22954 12.5607 3.43932C12.7704 3.64909 12.9133 3.91637 12.9712 4.20734C13.0291 4.49831 12.9994 4.79991 12.8858 5.074C12.7723 5.34809 12.58 5.58236 12.3334 5.74718C12.0867 5.912 11.7967 5.99998 11.5 5.99998H10V4.49998ZM14 18C14 18.2652 13.8946 18.5195 13.7071 18.7071C13.5196 18.8946 13.2652 19 13 19H10V12H14V18ZM16 9.99998H10V7.99998H15C15.2652 7.99998 15.5196 8.10533 15.7071 8.29287C15.8946 8.48041 16 8.73476 16 8.99998V9.99998Z" fill="#F8971C"/>
</svg>
