<svg width="16" height="12" viewBox="0 0 16 12" fill="none" xmlns="http://www.w3.org/2000/svg">
<path d="M14.5938 0.375H1.40625C0.630844 0.375 0 1.00584 0 1.78125V10.2188C0 10.9942 0.630844 11.625 1.40625 11.625H14.5938C15.3692 11.625 16 10.9942 16 10.2188V1.78125C16 1.00584 15.3692 0.375 14.5938 0.375ZM13.0698 1.3125L8 6.35681L2.93016 1.3125H13.0698ZM1.84375 10.6875H1.40625C1.14778 10.6875 0.9375 10.4772 0.9375 10.2188V3.29706L1.84375 4.18975V10.6875ZM13.1562 10.6875H2.75V5.12253L6.34266 8.675C6.78441 9.11731 7.373 9.36091 8 9.36091C8.627 9.36091 9.21559 9.11731 9.65628 8.67603L13.1562 5.20269V10.6875ZM15.0625 10.2188C15.0625 10.4772 14.8522 10.6875 14.5938 10.6875H14.0938V4.26991L15.0625 3.29706V10.2188ZM15.0625 1.97459L8.99403 8.0125C8.72941 8.27747 8.37638 8.42341 8 8.42341C7.62362 8.42341 7.27063 8.2775 7.00494 8.01147L0.9375 1.97459V1.78125C0.9375 1.52278 1.14778 1.3125 1.40625 1.3125H1.60097L8 7.67931L14.399 1.3125H14.5938C14.8522 1.3125 15.0625 1.52278 15.0625 1.78125V1.97459Z" fill="#185DA0"/>
</svg>
