<svg width="18" height="18" viewBox="0 0 18 18" fill="none" xmlns="http://www.w3.org/2000/svg">
<path d="M15.2 9.83334C15.0166 9.83334 14.825 9.775 14.6416 9.73334C14.2704 9.65152 13.9055 9.5429 13.55 9.40834C13.1634 9.26769 12.7384 9.275 12.3569 9.42884C11.9754 9.58269 11.6642 9.8722 11.4833 10.2417L11.3 10.6167C10.4883 10.1652 9.74245 9.60436 9.0833 8.95C8.42894 8.29085 7.86815 7.545 7.41663 6.73334L7.76663 6.5C8.1361 6.3191 8.42561 6.00794 8.57946 5.62641C8.7333 5.24488 8.7406 4.81993 8.59996 4.43334C8.46765 4.07702 8.35908 3.71233 8.27496 3.34167C8.2333 3.15834 8.19996 2.96667 8.17496 2.775C8.07377 2.18802 7.76632 1.65645 7.30798 1.27603C6.84964 0.895616 6.27054 0.691343 5.67496 0.700002H3.17496C2.81582 0.69663 2.46017 0.77068 2.13222 0.917111C1.80427 1.06354 1.51172 1.27892 1.27449 1.54857C1.03725 1.81823 0.860907 2.13583 0.757452 2.47976C0.653997 2.8237 0.625861 3.18588 0.674962 3.54167C1.11891 7.03282 2.71332 10.2766 5.20634 12.7605C7.69936 15.2445 10.9489 16.8271 14.4416 17.2583H14.7583C15.3728 17.2592 15.9661 17.0338 16.425 16.625C16.6886 16.3892 16.8992 16.1002 17.0429 15.7769C17.1865 15.4537 17.2599 15.1037 17.2583 14.75V12.25C17.2481 11.6712 17.0373 11.1138 16.6619 10.6731C16.2865 10.2323 15.7698 9.93552 15.2 9.83334ZM15.6166 14.8333C15.6165 14.9517 15.5911 15.0686 15.5423 15.1764C15.4934 15.2841 15.4222 15.3802 15.3333 15.4583C15.2405 15.5392 15.1316 15.5995 15.0139 15.6354C14.8961 15.6713 14.7721 15.682 14.65 15.6667C11.529 15.2665 8.63016 13.8387 6.41056 11.6086C4.19096 9.37842 2.77697 6.47278 2.39163 3.35C2.37837 3.22793 2.38999 3.10444 2.4258 2.98699C2.4616 2.86955 2.52085 2.76058 2.59996 2.66667C2.67805 2.57778 2.77418 2.50654 2.88194 2.45768C2.98971 2.40883 3.10664 2.38349 3.22496 2.38334H5.72496C5.91875 2.37902 6.10798 2.4424 6.26008 2.56256C6.41218 2.68272 6.51764 2.85214 6.55829 3.04167C6.59163 3.26945 6.6333 3.49445 6.6833 3.71667C6.77956 4.15596 6.90768 4.58765 7.06663 5.00834L5.89996 5.55C5.80021 5.59577 5.71048 5.66079 5.63593 5.74133C5.56137 5.82187 5.50346 5.91635 5.46552 6.01933C5.42758 6.12231 5.41035 6.23178 5.41483 6.34144C5.41932 6.4511 5.44541 6.55879 5.49163 6.65834C6.69096 9.2273 8.756 11.2923 11.325 12.4917C11.5278 12.575 11.7554 12.575 11.9583 12.4917C12.0622 12.4545 12.1577 12.397 12.2393 12.3227C12.3208 12.2483 12.3868 12.1584 12.4333 12.0583L12.95 10.8917C13.3808 11.0457 13.8204 11.1737 14.2666 11.275C14.4889 11.325 14.7139 11.3667 14.9416 11.4C15.1312 11.4407 15.3006 11.5461 15.4207 11.6982C15.5409 11.8503 15.6043 12.0395 15.6 12.2333L15.6166 14.8333Z" fill="#2767A5"/>
</svg>
