<svg width="26" height="16" viewBox="0 0 26 16" fill="none" xmlns="http://www.w3.org/2000/svg">
<path d="M4.86581 14.1462L13.1171 5.89673L21.3684 14.1462L21.3684 14.1463C22.0687 14.8463 23.2038 14.8463 23.9041 14.1463L23.9043 14.1461C24.6043 13.4459 24.6044 12.3108 23.9042 11.6105L23.9041 11.6104L14.385 2.09336L14.3849 2.09326C13.6846 1.39339 12.5496 1.39339 11.8493 2.09326L11.8492 2.09336L2.33009 11.6104L2.32394 11.6166L2.31789 11.6229C1.62976 12.3352 1.64953 13.4705 2.36203 14.1584L2.36207 14.1585C3.05694 14.8293 4.15851 14.8294 4.85341 14.1584L4.85966 14.1524L4.86581 14.1462Z" fill="white" stroke="white" stroke-width="2"/>
</svg>
